<svg version="1.1" xmlns="http://www.w3.org/2000/svg" viewBox="0 0 806 674.424989930292" width="806" height="674.424989930292">
  <!-- svg-source:excalidraw -->
  
  <defs>
    <style>
      @font-face {
        font-family: "Virgil";
        src: url("https://excalidraw.com/Virgil.woff2");
      }
      @font-face {
        font-family: "Cascadia";
        src: url("https://excalidraw.com/Cascadia.woff2");
      }
    </style>
  </defs>
  <rect x="0" y="0" width="806" height="674.424989930292" fill="#ffffff"></rect><g transform="translate(10 10) rotate(0 50.5 13)"><text x="0" y="18" font-family="Virgil, Segoe UI Emoji" font-size="20px" fill="#000000" text-anchor="start" style="white-space: pre;" direction="ltr">API Client</text></g><g transform="translate(238 11) rotate(0 54 13)"><text x="0" y="18" font-family="Virgil, Segoe UI Emoji" font-size="20px" fill="#000000" text-anchor="start" style="white-space: pre;" direction="ltr">wazo-confd</text></g><g transform="translate(482 12) rotate(0 69.5 13)"><text x="0" y="18" font-family="Virgil, Segoe UI Emoji" font-size="20px" fill="#000000" text-anchor="start" style="white-space: pre;" direction="ltr">wazo-sysconfd</text></g><g transform="translate(716 14) rotate(0 40 13)"><text x="0" y="18" font-family="Virgil, Segoe UI Emoji" font-size="20px" fill="#000000" text-anchor="start" style="white-space: pre;" direction="ltr">Asterisk</text></g><g stroke-linecap="round"><g transform="translate(62 74) rotate(0 -0.018950195709919626 290.9151908399538)"><path d="M0.47 1.16 C0.27 97.91, -1.08 483.31, -1.08 579.62 M-0.74 0.72 C-0.61 97.75, 0.93 484.57, 1.04 581.11" stroke="#000000" stroke-width="1" fill="none"></path></g></g><g stroke-linecap="round"><g transform="translate(291.5 73) rotate(0 0.7828660120691211 292.9177867588774)"><path d="M0.59 0.33 C0.75 98.1, -0.01 488.74, -0.13 586.38 M-0.56 -0.55 C0.07 96.92, 1.65 487.25, 2.13 584.71" stroke="#000000" stroke-width="1" fill="none"></path></g></g><g stroke-linecap="round"><g transform="translate(546.5 76) rotate(0 -0.31863104044487045 292.50850915966237)"><path d="M0.33 -0.87 C0.35 96.5, -0.03 486.87, -0.14 584.8 M-0.96 1.29 C-1 98.74, -0.68 488.61, -0.65 585.88" stroke="#000000" stroke-width="1" fill="none"></path></g></g><g stroke-linecap="round"><g transform="translate(762.5 76) rotate(0 0.7857012351236108 294.334847977149)"><path d="M-0.87 0.85 C-0.93 98.86, -0.31 490.57, 0.18 588.42 M0.88 0.24 C1.14 97.88, 2.27 488.45, 2.44 586.64" stroke="#000000" stroke-width="1" fill="none"></path></g></g><g stroke-linecap="round"><g transform="translate(66 115) rotate(0 112.54188656397162 0.41132613150776365)"><path d="M-0.33 0.99 C37.13 1.16, 187.92 -0.08, 225.41 -0.18 M1.7 0.47 C38.98 0.83, 187.68 0.59, 224.68 0.74" stroke="#000000" stroke-width="1" fill="none"></path></g><g transform="translate(66 115) rotate(0 112.54188656397162 0.41132613150776365)"><path d="M198.13 11.66 C204.64 6.82, 215.59 3.7, 226.57 1.59 M196.09 10.4 C201.94 8.89, 209.39 5.92, 223.91 1.7" stroke="#000000" stroke-width="1" fill="none"></path></g><g transform="translate(66 115) rotate(0 112.54188656397162 0.41132613150776365)"><path d="M198.15 -8.86 C204.46 -6.4, 215.39 -2.23, 226.57 1.59 M196.11 -10.12 C202.12 -7.02, 209.57 -5.38, 223.91 1.7" stroke="#000000" stroke-width="1" fill="none"></path></g></g><g transform="translate(78.66666666666674 77.33333333333326) rotate(0 101 10.5)"><text x="0" y="15" font-family="Virgil, Segoe UI Emoji" font-size="16px" fill="#000000" text-anchor="start" style="white-space: pre;" direction="ltr">POST /users/me/meetings</text></g><g stroke-linecap="round"><g transform="translate(295.75062329135835 291.9368971589952) rotate(0 -117.9570285226684 0.8661822733562872)"><path d="M0.58 -0.69 C-38.61 -0.28, -196.45 0.85, -235.96 1.29 M-0.57 1.57 C-39.78 2.21, -197.08 2.14, -236.5 2.42" stroke="#000000" stroke-width="1" fill="none"></path></g><g transform="translate(295.75062329135835 291.9368971589952) rotate(0 -117.9570285226684 0.8661822733562872)"><path d="M-209.48 -6.61 C-216.28 -4.91, -221.71 -4.81, -236.52 2 M-208.74 -8.79 C-216.05 -6.55, -221.05 -3.98, -236.9 1.83" stroke="#000000" stroke-width="1" fill="none"></path></g><g transform="translate(295.75062329135835 291.9368971589952) rotate(0 -117.9570285226684 0.8661822733562872)"><path d="M-209.42 13.91 C-216.04 10.83, -221.47 6.16, -236.52 2 M-208.68 11.73 C-216 8.99, -221.02 6.58, -236.9 1.83" stroke="#000000" stroke-width="1" fill="none"></path></g></g><g transform="translate(120 308) rotate(0 61.5 13)"><text x="0" y="18" font-family="Virgil, Segoe UI Emoji" font-size="20px" fill="#000000" text-anchor="start" style="white-space: pre;" direction="ltr">201 Created</text></g><g stroke-linecap="round"><g transform="translate(293.6095335558665 265.8305390602662) rotate(0 125.79116558466797 -0.09380499073930082)"><path d="M-0.42 -0.41 C41.71 0.03, 210.16 1.26, 252.01 1.48 M1.55 -1.67 C43.65 -1.51, 209.44 -1.1, 251.38 -0.48" stroke="#000000" stroke-width="1" fill="none"></path></g><g transform="translate(293.6095335558665 265.8305390602662) rotate(0 125.79116558466797 -0.09380499073930082)"><path d="M222.43 10.59 C230.32 6.12, 235.91 4.31, 250.77 -0.87 M222.64 9.27 C233.71 5.79, 243.1 2.76, 250.66 -1.12" stroke="#000000" stroke-width="1" fill="none"></path></g><g transform="translate(293.6095335558665 265.8305390602662) rotate(0 125.79116558466797 -0.09380499073930082)"><path d="M222.59 -9.93 C230.24 -9.62, 235.8 -6.63, 250.77 -0.87 M222.8 -11.25 C233.74 -7.53, 243.07 -3.34, 250.66 -1.12" stroke="#000000" stroke-width="1" fill="none"></path></g></g><g transform="translate(329.39855072463786 88.26086956521732) rotate(0 105.00000000000006 84)"><text x="0" y="15" font-family="Virgil, Segoe UI Emoji" font-size="16px" fill="#000000" text-anchor="start" style="white-space: pre;" direction="ltr">POST /exec_req_handlers</text><text x="0" y="36" font-family="Virgil, Segoe UI Emoji" font-size="16px" fill="#000000" text-anchor="start" style="white-space: pre;" direction="ltr">resources: [</text><text x="0" y="57" font-family="Virgil, Segoe UI Emoji" font-size="16px" fill="#000000" text-anchor="start" style="white-space: pre;" direction="ltr">  type: meeting</text><text x="0" y="78" font-family="Virgil, Segoe UI Emoji" font-size="16px" fill="#000000" text-anchor="start" style="white-space: pre;" direction="ltr">  id: aaa-bbb-ccc,</text><text x="0" y="99" font-family="Virgil, Segoe UI Emoji" font-size="16px" fill="#000000" text-anchor="start" style="white-space: pre;" direction="ltr"></text><text x="0" y="120" font-family="Virgil, Segoe UI Emoji" font-size="16px" fill="#000000" text-anchor="start" style="white-space: pre;" direction="ltr">  type: endpoint_sip</text><text x="0" y="141" font-family="Virgil, Segoe UI Emoji" font-size="16px" fill="#000000" text-anchor="start" style="white-space: pre;" direction="ltr">  id: ...</text><text x="0" y="162" font-family="Virgil, Segoe UI Emoji" font-size="16px" fill="#000000" text-anchor="start" style="white-space: pre;" direction="ltr">]</text></g><g stroke-linecap="round"><g transform="translate(550 290) rotate(0 105.43036144562075 -0.39864347616213536)"><path d="M-0.28 -1.13 C35.1 -1.04, 176.2 0.2, 211.14 0.28 M1.77 0.9 C37.19 0.63, 176.38 -1.6, 210.79 -1.69" stroke="#000000" stroke-width="1" fill="none"></path></g><g transform="translate(550 290) rotate(0 105.43036144562075 -0.39864347616213536)"><path d="M180.83 10.76 C189.01 5.69, 193.29 2.73, 211.37 -2.27 M182.02 8.75 C193.8 5.48, 204.7 0.95, 210.35 -1.46" stroke="#000000" stroke-width="1" fill="none"></path></g><g transform="translate(550 290) rotate(0 105.43036144562075 -0.39864347616213536)"><path d="M180.62 -9.76 C188.79 -10.59, 193.12 -9.31, 211.37 -2.27 M181.81 -11.77 C193.61 -7.37, 204.59 -4.24, 210.35 -1.46" stroke="#000000" stroke-width="1" fill="none"></path></g></g><g stroke-linecap="round"><g transform="translate(762 410) rotate(0 -108.4277148888633 -0.6267527182772596)"><path d="M0.09 -1.02 C-35.92 -1.39, -180.2 -2.27, -216.62 -2.31 M-1.32 1.05 C-37.34 0.88, -180.57 -0.23, -216.94 -0.95" stroke="#000000" stroke-width="1" fill="none"></path></g><g transform="translate(762 410) rotate(0 -108.4277148888633 -0.6267527182772596)"><path d="M-190.33 -8.86 C-196.34 -9.38, -201.76 -7.18, -216.76 -2.55 M-188.51 -9.88 C-194.52 -8.09, -202.14 -7.09, -217.19 -1.12" stroke="#000000" stroke-width="1" fill="none"></path></g><g transform="translate(762 410) rotate(0 -108.4277148888633 -0.6267527182772596)"><path d="M-190.59 11.66 C-196.51 5.96, -201.87 2.98, -216.76 -2.55 M-188.78 10.64 C-194.68 7.74, -202.24 4.05, -217.19 -1.12" stroke="#000000" stroke-width="1" fill="none"></path></g></g><g transform="translate(614.3333333333333 257.8333333333333) rotate(0 35.5 12.999999999999972)"><text x="0" y="18" font-family="Virgil, Segoe UI Emoji" font-size="20px" fill="#000000" text-anchor="start" style="white-space: pre;" direction="ltr">reloads</text></g><g stroke-linecap="round"><g transform="translate(542 283) rotate(0 -124.29926699555483 -0.5386227864771627)"><path d="M1.15 0.09 C-40.38 -0.11, -206.87 -1.27, -248.53 -1.17 M0.3 -0.9 C-41.49 -1.01, -208.65 -0.18, -249.75 -0.25" stroke="#000000" stroke-width="1" fill="none"></path></g><g transform="translate(542 283) rotate(0 -124.29926699555483 -0.5386227864771627)"><path d="M-221.43 -11.44 C-233.47 -7.98, -240.36 -4.26, -250.76 0.02 M-222.45 -9.7 C-226.7 -7.85, -232.09 -5.82, -250.1 0.7" stroke="#000000" stroke-width="1" fill="none"></path></g><g transform="translate(542 283) rotate(0 -124.29926699555483 -0.5386227864771627)"><path d="M-221.38 9.08 C-233.45 5.3, -240.35 1.78, -250.76 0.02 M-222.4 10.82 C-226.6 8.5, -232.01 6.34, -250.1 0.7" stroke="#000000" stroke-width="1" fill="none"></path></g></g><g transform="translate(384 297) rotate(0 39.5 13)"><text x="0" y="18" font-family="Virgil, Segoe UI Emoji" font-size="20px" fill="#000000" text-anchor="start" style="white-space: pre;" direction="ltr">200 OK</text></g><g stroke-linecap="round"><g transform="translate(290 444) rotate(0 -114.18917180635026 0.5147416972978931)"><path d="M-0.89 -0.66 C-39.14 -0.89, -190.29 -0.61, -228.42 -0.33 M0.84 1.61 C-37.64 2.08, -191.2 1.43, -229.22 1.02" stroke="#000000" stroke-width="1" fill="none"></path></g><g transform="translate(290 444) rotate(0 -114.18917180635026 0.5147416972978931)"><path d="M-202.05 -8.57 C-212.49 -6.95, -221.31 -3.19, -231.22 2.92 M-200.15 -9.19 C-209.66 -5.96, -217.23 -3.75, -229.52 1.27" stroke="#000000" stroke-width="1" fill="none"></path></g><g transform="translate(290 444) rotate(0 -114.18917180635026 0.5147416972978931)"><path d="M-202.19 11.95 C-212.75 5.56, -221.51 1.31, -231.22 2.92 M-200.29 11.33 C-209.95 8.84, -217.48 5.34, -229.52 1.27" stroke="#000000" stroke-width="1" fill="none"></path></g></g><g transform="translate(98 459.5) rotate(0 83.5 26)"><text x="0" y="18" font-family="Virgil, Segoe UI Emoji" font-size="20px" fill="#000000" text-anchor="start" style="white-space: pre;" direction="ltr">meeting_progress</text><text x="0" y="44" font-family="Virgil, Segoe UI Emoji" font-size="20px" fill="#000000" text-anchor="start" style="white-space: pre;" direction="ltr">(via websocketd)</text></g><g stroke-linecap="round"><g transform="translate(543.9055454157958 427.2212327818513) rotate(0 -126.77741284457414 0.6570884473281353)"><path d="M0.29 0.36 C-41.85 0.69, -210.69 0.71, -253 0.89 M-1.02 -0.5 C-43.29 0.04, -211.59 1.33, -253.84 1.82" stroke="#000000" stroke-width="1" fill="none"></path></g><g transform="translate(543.9055454157958 427.2212327818513) rotate(0 -126.77741284457414 0.6570884473281353)"><path d="M-225.16 -8.37 C-235.81 -6.27, -242.97 -3.07, -255.45 0.3 M-226.49 -8.39 C-232.71 -5.13, -238.22 -3.81, -253.56 2.48" stroke="#000000" stroke-width="1" fill="none"></path></g><g transform="translate(543.9055454157958 427.2212327818513) rotate(0 -126.77741284457414 0.6570884473281353)"><path d="M-224.96 12.15 C-235.48 8.38, -242.69 5.71, -255.45 0.3 M-226.29 12.13 C-232.45 10.61, -238.01 7.15, -253.56 2.48" stroke="#000000" stroke-width="1" fill="none"></path></g></g><g transform="translate(325.5000000000002 464.48124748257294) rotate(0 102 94.5)"><text x="0" y="15" font-family="Virgil, Segoe UI Emoji" font-size="16px" fill="#000000" text-anchor="start" style="white-space: pre;" direction="ltr">asterisk_reload_progress</text><text x="0" y="36" font-family="Virgil, Segoe UI Emoji" font-size="16px" fill="#000000" text-anchor="start" style="white-space: pre;" direction="ltr"></text><text x="0" y="57" font-family="Virgil, Segoe UI Emoji" font-size="16px" fill="#000000" text-anchor="start" style="white-space: pre;" direction="ltr">resources: [</text><text x="0" y="78" font-family="Virgil, Segoe UI Emoji" font-size="16px" fill="#000000" text-anchor="start" style="white-space: pre;" direction="ltr">  type: meeting</text><text x="0" y="99" font-family="Virgil, Segoe UI Emoji" font-size="16px" fill="#000000" text-anchor="start" style="white-space: pre;" direction="ltr">  id: aaa-bbb-ccc,</text><text x="0" y="120" font-family="Virgil, Segoe UI Emoji" font-size="16px" fill="#000000" text-anchor="start" style="white-space: pre;" direction="ltr"></text><text x="0" y="141" font-family="Virgil, Segoe UI Emoji" font-size="16px" fill="#000000" text-anchor="start" style="white-space: pre;" direction="ltr">  type: endpoint_sip</text><text x="0" y="162" font-family="Virgil, Segoe UI Emoji" font-size="16px" fill="#000000" text-anchor="start" style="white-space: pre;" direction="ltr">  id: ...</text><text x="0" y="183" font-family="Virgil, Segoe UI Emoji" font-size="16px" fill="#000000" text-anchor="start" style="white-space: pre;" direction="ltr">]</text></g><g stroke-linecap="round"><g transform="translate(288.3602802454915 557.9413924101094) rotate(0 -114.72679109187789 -0.42013804547553946)"><path d="M0.42 -1.11 C-37.73 -0.87, -191.83 0.05, -229.88 0.24 M-0.81 0.93 C-38.53 0.88, -189.89 -1.83, -227.78 -1.77" stroke="#000000" stroke-width="1" fill="none"></path></g><g transform="translate(288.3602802454915 557.9413924101094) rotate(0 -114.72679109187789 -0.42013804547553946)"><path d="M-201.34 -13.7 C-205.48 -7.99, -212.12 -8.36, -226.12 -2.13 M-198.72 -12.05 C-209.63 -8.98, -219.58 -4.62, -228.42 -2.06" stroke="#000000" stroke-width="1" fill="none"></path></g><g transform="translate(288.3602802454915 557.9413924101094) rotate(0 -114.72679109187789 -0.42013804547553946)"><path d="M-201.53 6.82 C-205.42 7.99, -212.02 3.08, -226.12 -2.13 M-198.91 8.47 C-209.63 4.39, -219.52 1.61, -228.42 -2.06" stroke="#000000" stroke-width="1" fill="none"></path></g></g><g transform="translate(86.36028024549148 568.4413924101094) rotate(0 87.5 26)"><text x="0" y="18" font-family="Virgil, Segoe UI Emoji" font-size="20px" fill="#000000" text-anchor="start" style="white-space: pre;" direction="ltr">endpoint_progress</text><text x="0" y="44" font-family="Virgil, Segoe UI Emoji" font-size="20px" fill="#000000" text-anchor="start" style="white-space: pre;" direction="ltr">(via websocketd)</text></g><g transform="translate(639.8357487922708 425.0247257434427) rotate(0 12.5 10.5)"><text x="0" y="15" font-family="Virgil, Segoe UI Emoji" font-size="16px" fill="#000000" text-anchor="start" style="white-space: pre;" direction="ltr">end</text></g></svg>