<svg version="1.1" xmlns="http://www.w3.org/2000/svg" viewBox="0 0 806 447.94374244771905" width="806" height="447.94374244771905">
  <!-- svg-source:excalidraw -->
  
  <defs>
    <style>
      @font-face {
        font-family: "Virgil";
        src: url("https://excalidraw.com/Virgil.woff2");
      }
      @font-face {
        font-family: "Cascadia";
        src: url("https://excalidraw.com/Cascadia.woff2");
      }
    </style>
  </defs>
  <rect x="0" y="0" width="806" height="447.94374244771905" fill="#ffffff"></rect><g transform="translate(10 10) rotate(0 50.5 13)"><text x="0" y="18" font-family="Virgil, Segoe UI Emoji" font-size="20px" fill="#000000" text-anchor="start" style="white-space: pre;" direction="ltr">API Client</text></g><g transform="translate(238 11) rotate(0 54 13)"><text x="0" y="18" font-family="Virgil, Segoe UI Emoji" font-size="20px" fill="#000000" text-anchor="start" style="white-space: pre;" direction="ltr">wazo-confd</text></g><g transform="translate(482 12) rotate(0 69.5 13)"><text x="0" y="18" font-family="Virgil, Segoe UI Emoji" font-size="20px" fill="#000000" text-anchor="start" style="white-space: pre;" direction="ltr">wazo-sysconfd</text></g><g transform="translate(716 14) rotate(0 40 13)"><text x="0" y="18" font-family="Virgil, Segoe UI Emoji" font-size="20px" fill="#000000" text-anchor="start" style="white-space: pre;" direction="ltr">Asterisk</text></g><g stroke-linecap="round"><g transform="translate(62 74) rotate(0 0.4898975197970685 181.46406690254815)"><path d="M0.47 1.16 C0.38 61.43, -0.51 300.89, -0.4 360.72 M-0.74 0.72 C-0.49 61.26, 1.5 302.15, 1.72 362.21" stroke="#000000" stroke-width="1" fill="none"></path></g></g><g stroke-linecap="round"><g transform="translate(291.5 73) rotate(0 -1.0044989325105576 179.99473430991176)"><path d="M0.59 0.33 C0.34 60.46, -2.07 300.54, -2.6 360.54 M-0.56 -0.55 C-0.34 59.28, -0.41 299.05, -0.34 358.86" stroke="#000000" stroke-width="1" fill="none"></path></g></g><g stroke-linecap="round"><g transform="translate(546.5 76) rotate(0 -0.3317123638050816 176.98686473853883)"><path d="M0.33 -0.87 C0.3 58, -0.27 294.33, -0.43 353.76 M-0.96 1.29 C-1.04 60.23, -0.91 296.07, -0.93 354.84" stroke="#000000" stroke-width="1" fill="none"></path></g></g><g stroke-linecap="round"><g transform="translate(762.5 76) rotate(0 -0.2649180607712651 181.09422423586253)"><path d="M-0.87 0.85 C-1.19 61.12, -1.61 301.83, -1.38 361.94 M0.88 0.24 C0.88 60.14, 0.97 299.71, 0.88 360.16" stroke="#000000" stroke-width="1" fill="none"></path></g></g><g stroke-linecap="round"><g transform="translate(66 115) rotate(0 112.54188656397162 0.41132613150776365)"><path d="M-0.33 0.99 C37.13 1.16, 187.92 -0.08, 225.41 -0.18 M1.7 0.47 C38.98 0.83, 187.68 0.59, 224.68 0.74" stroke="#000000" stroke-width="1" fill="none"></path></g><g transform="translate(66 115) rotate(0 112.54188656397162 0.41132613150776365)"><path d="M198.13 11.66 C204.64 6.82, 215.59 3.7, 226.57 1.59 M196.09 10.4 C201.94 8.89, 209.39 5.92, 223.91 1.7" stroke="#000000" stroke-width="1" fill="none"></path></g><g transform="translate(66 115) rotate(0 112.54188656397162 0.41132613150776365)"><path d="M198.15 -8.86 C204.46 -6.4, 215.39 -2.23, 226.57 1.59 M196.11 -10.12 C202.12 -7.02, 209.57 -5.38, 223.91 1.7" stroke="#000000" stroke-width="1" fill="none"></path></g></g><g transform="translate(97 79) rotate(0 78 13)"><text x="0" y="18" font-family="Virgil, Segoe UI Emoji" font-size="20px" fill="#000000" text-anchor="start" style="white-space: pre;" direction="ltr">POST /meetings</text></g><g stroke-linecap="round"><g transform="translate(289.75062329135835 158.93689715899524) rotate(0 -117.9570285226684 0.8661822733562587)"><path d="M0.58 -0.69 C-38.61 -0.28, -196.45 0.85, -235.96 1.29 M-0.57 1.57 C-39.78 2.21, -197.08 2.14, -236.5 2.42" stroke="#000000" stroke-width="1" fill="none"></path></g><g transform="translate(289.75062329135835 158.93689715899524) rotate(0 -117.9570285226684 0.8661822733562587)"><path d="M-209.48 -6.61 C-216.28 -4.91, -221.71 -4.81, -236.52 2 M-208.74 -8.79 C-216.05 -6.55, -221.05 -3.98, -236.9 1.83" stroke="#000000" stroke-width="1" fill="none"></path></g><g transform="translate(289.75062329135835 158.93689715899524) rotate(0 -117.9570285226684 0.8661822733562587)"><path d="M-209.42 13.91 C-216.04 10.83, -221.47 6.16, -236.52 2 M-208.68 11.73 C-216 8.99, -221.02 6.58, -236.9 1.83" stroke="#000000" stroke-width="1" fill="none"></path></g></g><g transform="translate(111 173) rotate(0 61.5 13)"><text x="0" y="18" font-family="Virgil, Segoe UI Emoji" font-size="20px" fill="#000000" text-anchor="start" style="white-space: pre;" direction="ltr">201 Created</text></g><g stroke-linecap="round"><g transform="translate(292.6095335558665 170.83053906026618) rotate(0 125.79116558466797 -0.09380499073930082)"><path d="M-0.42 -0.41 C41.71 0.03, 210.16 1.26, 252.01 1.48 M1.55 -1.67 C43.65 -1.51, 209.44 -1.1, 251.38 -0.48" stroke="#000000" stroke-width="1" fill="none"></path></g><g transform="translate(292.6095335558665 170.83053906026618) rotate(0 125.79116558466797 -0.09380499073930082)"><path d="M222.43 10.59 C230.32 6.12, 235.91 4.31, 250.77 -0.87 M222.64 9.27 C233.71 5.79, 243.1 2.76, 250.66 -1.12" stroke="#000000" stroke-width="1" fill="none"></path></g><g transform="translate(292.6095335558665 170.83053906026618) rotate(0 125.79116558466797 -0.09380499073930082)"><path d="M222.59 -9.93 C230.24 -9.62, 235.8 -6.63, 250.77 -0.87 M222.8 -11.25 C233.74 -7.53, 243.07 -3.34, 250.66 -1.12" stroke="#000000" stroke-width="1" fill="none"></path></g></g><g transform="translate(309 140) rotate(0 105 10.5)"><text x="0" y="15" font-family="Virgil, Segoe UI Emoji" font-size="16px" fill="#000000" text-anchor="start" style="white-space: pre;" direction="ltr">POST /exec_req_handlers</text></g><g stroke-linecap="round"><g transform="translate(549 195) rotate(0 105.43036144562075 -0.39864347616210694)"><path d="M-0.28 -1.13 C35.1 -1.04, 176.2 0.2, 211.14 0.28 M1.77 0.9 C37.19 0.63, 176.38 -1.6, 210.79 -1.69" stroke="#000000" stroke-width="1" fill="none"></path></g><g transform="translate(549 195) rotate(0 105.43036144562075 -0.39864347616210694)"><path d="M180.83 10.76 C189.01 5.69, 193.29 2.73, 211.37 -2.27 M182.02 8.75 C193.8 5.48, 204.7 0.95, 210.35 -1.46" stroke="#000000" stroke-width="1" fill="none"></path></g><g transform="translate(549 195) rotate(0 105.43036144562075 -0.39864347616210694)"><path d="M180.62 -9.76 C188.79 -10.59, 193.12 -9.31, 211.37 -2.27 M181.81 -11.77 C193.61 -7.37, 204.59 -4.24, 210.35 -1.46" stroke="#000000" stroke-width="1" fill="none"></path></g></g><g stroke-linecap="round"><g transform="translate(761 315) rotate(0 -108.4277148888633 -0.6267527182772596)"><path d="M0.09 -1.02 C-35.92 -1.39, -180.2 -2.27, -216.62 -2.31 M-1.32 1.05 C-37.34 0.88, -180.57 -0.23, -216.94 -0.95" stroke="#000000" stroke-width="1" fill="none"></path></g><g transform="translate(761 315) rotate(0 -108.4277148888633 -0.6267527182772596)"><path d="M-190.33 -8.86 C-196.34 -9.38, -201.76 -7.18, -216.76 -2.55 M-188.51 -9.88 C-194.52 -8.09, -202.14 -7.09, -217.19 -1.12" stroke="#000000" stroke-width="1" fill="none"></path></g><g transform="translate(761 315) rotate(0 -108.4277148888633 -0.6267527182772596)"><path d="M-190.59 11.66 C-196.51 5.96, -201.87 2.98, -216.76 -2.55 M-188.78 10.64 C-194.68 7.74, -202.24 4.05, -217.19 -1.12" stroke="#000000" stroke-width="1" fill="none"></path></g></g><g transform="translate(611 159.5) rotate(0 35.5 13)"><text x="0" y="18" font-family="Virgil, Segoe UI Emoji" font-size="20px" fill="#000000" text-anchor="start" style="white-space: pre;" direction="ltr">reloads</text></g><g stroke-linecap="round"><g transform="translate(540 329) rotate(0 -124.29926699555483 -0.5386227864771627)"><path d="M1.15 0.09 C-40.38 -0.11, -206.87 -1.27, -248.53 -1.17 M0.3 -0.9 C-41.49 -1.01, -208.65 -0.18, -249.75 -0.25" stroke="#000000" stroke-width="1" fill="none"></path></g><g transform="translate(540 329) rotate(0 -124.29926699555483 -0.5386227864771627)"><path d="M-221.43 -11.44 C-233.47 -7.98, -240.36 -4.26, -250.76 0.02 M-222.45 -9.7 C-226.7 -7.85, -232.09 -5.82, -250.1 0.7" stroke="#000000" stroke-width="1" fill="none"></path></g><g transform="translate(540 329) rotate(0 -124.29926699555483 -0.5386227864771627)"><path d="M-221.38 9.08 C-233.45 5.3, -240.35 1.78, -250.76 0.02 M-222.4 10.82 C-226.6 8.5, -232.01 6.34, -250.1 0.7" stroke="#000000" stroke-width="1" fill="none"></path></g></g><g transform="translate(370 338) rotate(0 39.5 13)"><text x="0" y="18" font-family="Virgil, Segoe UI Emoji" font-size="20px" fill="#000000" text-anchor="start" style="white-space: pre;" direction="ltr">200 OK</text></g><g stroke-linecap="round"><g transform="translate(289 349) rotate(0 -114.18917180635026 0.5147416972978931)"><path d="M-0.89 -0.66 C-39.14 -0.89, -190.29 -0.61, -228.42 -0.33 M0.84 1.61 C-37.64 2.08, -191.2 1.43, -229.22 1.02" stroke="#000000" stroke-width="1" fill="none"></path></g><g transform="translate(289 349) rotate(0 -114.18917180635026 0.5147416972978931)"><path d="M-202.05 -8.57 C-212.49 -6.95, -221.31 -3.19, -231.22 2.92 M-200.15 -9.19 C-209.66 -5.96, -217.23 -3.75, -229.52 1.27" stroke="#000000" stroke-width="1" fill="none"></path></g><g transform="translate(289 349) rotate(0 -114.18917180635026 0.5147416972978931)"><path d="M-202.19 11.95 C-212.75 5.56, -221.51 1.31, -231.22 2.92 M-200.29 11.33 C-209.95 8.84, -217.48 5.34, -229.52 1.27" stroke="#000000" stroke-width="1" fill="none"></path></g></g><g transform="translate(97 364.5) rotate(0 83.5 26)"><text x="0" y="18" font-family="Virgil, Segoe UI Emoji" font-size="20px" fill="#000000" text-anchor="start" style="white-space: pre;" direction="ltr">meeting_progress</text><text x="0" y="44" font-family="Virgil, Segoe UI Emoji" font-size="20px" fill="#000000" text-anchor="start" style="white-space: pre;" direction="ltr">(via websocketd)</text></g></svg>