<svg version="1.1" xmlns="http://www.w3.org/2000/svg" viewBox="0 0 806 343.55003653321796" width="806" height="343.55003653321796">
  <!-- svg-source:excalidraw -->
  
  <defs>
    <style>
      @font-face {
        font-family: "Virgil";
        src: url("https://excalidraw.com/Virgil.woff2");
      }
      @font-face {
        font-family: "Cascadia";
        src: url("https://excalidraw.com/Cascadia.woff2");
      }
    </style>
  </defs>
  <rect x="0" y="0" width="806" height="343.55003653321796" fill="#ffffff"></rect><g transform="translate(10 10) rotate(0 50.5 13)"><text x="0" y="18" font-family="Virgil, Segoe UI Emoji" font-size="20px" fill="#000000" text-anchor="start" style="white-space: pre;" direction="ltr">API Client</text></g><g transform="translate(238 11) rotate(0 54 13)"><text x="0" y="18" font-family="Virgil, Segoe UI Emoji" font-size="20px" fill="#000000" text-anchor="start" style="white-space: pre;" direction="ltr">wazo-confd</text></g><g transform="translate(716 14) rotate(0 40 13)"><text x="0" y="18" font-family="Virgil, Segoe UI Emoji" font-size="20px" fill="#000000" text-anchor="start" style="white-space: pre;" direction="ltr">Asterisk</text></g><g stroke-linecap="round"><g transform="translate(62 73.99352289121725) rotate(0 -0.35438246530264905 122.1504933137582)"><path d="M0.47 1.16 C0.21 41.65, -1.36 202.04, -1.41 242.09 M-0.74 0.72 C-0.66 41.49, 0.65 203.3, 0.7 243.58" stroke="#000000" stroke-width="1" fill="none"></path></g></g><g stroke-linecap="round"><g transform="translate(290.84557994057093 73) rotate(0 0.6186703550633865 125.40467593915466)"><path d="M0.59 0.33 C0.69 42.27, -0.28 209.55, -0.46 251.36 M-0.56 -0.55 C0.02 41.09, 1.38 208.06, 1.8 249.68" stroke="#000000" stroke-width="1" fill="none"></path></g></g><g stroke-linecap="round"><g transform="translate(760.5022212982472 75.98917678741088) rotate(0 -0.21538242580800215 128.90278288490654)"><path d="M-0.87 0.85 C-1.18 43.72, -1.56 214.85, -1.32 257.56 M0.88 0.24 C0.89 42.74, 1.02 212.73, 0.94 255.78" stroke="#000000" stroke-width="1" fill="none"></path></g></g><g stroke-linecap="round"><g transform="translate(66 115) rotate(0 112.54188656397162 0.41132613150776365)"><path d="M-0.33 0.99 C37.13 1.16, 187.92 -0.08, 225.41 -0.18 M1.7 0.47 C38.98 0.83, 187.68 0.59, 224.68 0.74" stroke="#000000" stroke-width="1" fill="none"></path></g><g transform="translate(66 115) rotate(0 112.54188656397162 0.41132613150776365)"><path d="M198.13 11.66 C204.64 6.82, 215.59 3.7, 226.57 1.59 M196.09 10.4 C201.94 8.89, 209.39 5.92, 223.91 1.7" stroke="#000000" stroke-width="1" fill="none"></path></g><g transform="translate(66 115) rotate(0 112.54188656397162 0.41132613150776365)"><path d="M198.15 -8.86 C204.46 -6.4, 215.39 -2.23, 226.57 1.59 M196.11 -10.12 C202.12 -7.02, 209.57 -5.38, 223.91 1.7" stroke="#000000" stroke-width="1" fill="none"></path></g></g><g transform="translate(97 79) rotate(0 78 13)"><text x="0" y="18" font-family="Virgil, Segoe UI Emoji" font-size="20px" fill="#000000" text-anchor="start" style="white-space: pre;" direction="ltr">POST /meetings</text></g><g stroke-linecap="round"><g transform="translate(289.75062329135835 158.93689715899524) rotate(0 -117.9570285226684 0.8661822733562587)"><path d="M0.58 -0.69 C-38.61 -0.28, -196.45 0.85, -235.96 1.29 M-0.57 1.57 C-39.78 2.21, -197.08 2.14, -236.5 2.42" stroke="#000000" stroke-width="1" fill="none"></path></g><g transform="translate(289.75062329135835 158.93689715899524) rotate(0 -117.9570285226684 0.8661822733562587)"><path d="M-209.48 -6.61 C-216.28 -4.91, -221.71 -4.81, -236.52 2 M-208.74 -8.79 C-216.05 -6.55, -221.05 -3.98, -236.9 1.83" stroke="#000000" stroke-width="1" fill="none"></path></g><g transform="translate(289.75062329135835 158.93689715899524) rotate(0 -117.9570285226684 0.8661822733562587)"><path d="M-209.42 13.91 C-216.04 10.83, -221.47 6.16, -236.52 2 M-208.68 11.73 C-216 8.99, -221.02 6.58, -236.9 1.83" stroke="#000000" stroke-width="1" fill="none"></path></g></g><g transform="translate(111 173) rotate(0 61.5 13)"><text x="0" y="18" font-family="Virgil, Segoe UI Emoji" font-size="20px" fill="#000000" text-anchor="start" style="white-space: pre;" direction="ltr">201 Created</text></g><g stroke-linecap="round"><g transform="translate(292.6095335558665 170.83053906026618) rotate(0 235.59908036828733 0.0607150986262468)"><path d="M-0.42 -0.41 C78.31 0.08, 393.17 1.52, 471.62 1.79 M1.55 -1.67 C80.26 -1.45, 392.46 -0.84, 471 -0.17" stroke="#000000" stroke-width="1" fill="none"></path></g><g transform="translate(292.6095335558665 170.83053906026618) rotate(0 235.59908036828733 0.0607150986262468)"><path d="M442.08 10.98 C449.96 6.49, 455.54 4.67, 470.38 -0.56 M442.28 9.66 C453.34 6.15, 462.73 3.1, 470.28 -0.81" stroke="#000000" stroke-width="1" fill="none"></path></g><g transform="translate(292.6095335558665 170.83053906026618) rotate(0 235.59908036828733 0.0607150986262468)"><path d="M442.18 -9.54 C449.84 -9.25, 455.4 -6.28, 470.38 -0.56 M442.38 -10.86 C453.33 -7.17, 462.68 -3.01, 470.28 -0.81" stroke="#000000" stroke-width="1" fill="none"></path></g></g><g transform="translate(309 140) rotate(0 131 10.5)"><text x="0" y="15" font-family="Virgil, Segoe UI Emoji" font-size="16px" fill="#000000" text-anchor="start" style="white-space: pre;" direction="ltr">POST /asterisk/config/dynamic/...</text></g><g stroke-linecap="round"><g transform="translate(759.1520476717501 231.0931630533189) rotate(0 -231.87529083142988 -1.0852043131366713)"><path d="M1.15 0.09 C-76.23 -0.29, -386.16 -2.18, -463.68 -2.26 M0.3 -0.9 C-77.35 -1.19, -387.94 -1.09, -464.9 -1.34" stroke="#000000" stroke-width="1" fill="none"></path></g><g transform="translate(759.1520476717501 231.0931630533189) rotate(0 -231.87529083142988 -1.0852043131366713)"><path d="M-436.54 -12.44 C-448.6 -9.01, -455.5 -5.32, -465.92 -1.07 M-437.56 -10.7 C-441.82 -8.86, -447.23 -6.86, -465.25 -0.39" stroke="#000000" stroke-width="1" fill="none"></path></g><g transform="translate(759.1520476717501 231.0931630533189) rotate(0 -231.87529083142988 -1.0852043131366713)"><path d="M-436.57 8.08 C-448.63 4.27, -455.51 0.71, -465.92 -1.07 M-437.59 9.82 C-441.78 7.48, -447.18 5.3, -465.25 -0.39" stroke="#000000" stroke-width="1" fill="none"></path></g></g><g transform="translate(374 239) rotate(0 39.5 13)"><text x="0" y="18" font-family="Virgil, Segoe UI Emoji" font-size="20px" fill="#000000" text-anchor="start" style="white-space: pre;" direction="ltr">200 OK</text></g><g stroke-linecap="round"><g transform="translate(293 250) rotate(0 -114.18917180635026 0.5147416972978647)"><path d="M-0.89 -0.66 C-39.14 -0.89, -190.29 -0.61, -228.42 -0.33 M0.84 1.61 C-37.64 2.08, -191.2 1.43, -229.22 1.02" stroke="#000000" stroke-width="1" fill="none"></path></g><g transform="translate(293 250) rotate(0 -114.18917180635026 0.5147416972978647)"><path d="M-202.05 -8.57 C-212.49 -6.95, -221.31 -3.19, -231.22 2.92 M-200.15 -9.19 C-209.66 -5.96, -217.23 -3.75, -229.52 1.27" stroke="#000000" stroke-width="1" fill="none"></path></g><g transform="translate(293 250) rotate(0 -114.18917180635026 0.5147416972978647)"><path d="M-202.19 11.95 C-212.75 5.56, -221.51 1.31, -231.22 2.92 M-200.29 11.33 C-209.95 8.84, -217.48 5.34, -229.52 1.27" stroke="#000000" stroke-width="1" fill="none"></path></g></g><g transform="translate(101 265.5) rotate(0 83.5 26)"><text x="0" y="18" font-family="Virgil, Segoe UI Emoji" font-size="20px" fill="#000000" text-anchor="start" style="white-space: pre;" direction="ltr">meeting_progress</text><text x="0" y="44" font-family="Virgil, Segoe UI Emoji" font-size="20px" fill="#000000" text-anchor="start" style="white-space: pre;" direction="ltr">(via websocketd)</text></g><g stroke-linecap="round"><g transform="translate(290.9968519943137 174.90866359000728) rotate(0 235.56625391514257 0.8408840287118835)"><path d="M1.01 0.8 C79.37 1.11, 392.92 1.61, 471.05 1.81 M0.08 0.18 C78.21 0.12, 391.46 -0.1, 470.12 -0.13" stroke="#000000" stroke-width="1" fill="none"></path></g><g transform="translate(290.9968519943137 174.90866359000728) rotate(0 235.56625391514257 0.8408840287118835)"><path d="M443.27 10.21 C453.04 4.07, 463.93 4.04, 468.13 0.17 M442.76 9.69 C447.99 8.21, 453.3 6.37, 470.5 -0.54" stroke="#000000" stroke-width="1" fill="none"></path></g><g transform="translate(290.9968519943137 174.90866359000728) rotate(0 235.56625391514257 0.8408840287118835)"><path d="M443.26 -10.31 C453.02 -8.78, 463.91 -1.13, 468.13 0.17 M442.75 -10.83 C447.8 -7.91, 453.1 -5.35, 470.5 -0.54" stroke="#000000" stroke-width="1" fill="none"></path></g></g><g stroke-linecap="round"><g transform="translate(292.9968519943137 182.90866359000728) rotate(0 235.55173598834534 0.10416227967783698)"><path d="M0.8 0.04 C79.37 -0.08, 392.88 -0.14, 471.34 0.28 M-0.24 -0.98 C78.21 -0.48, 392.02 0.89, 470.57 1.19" stroke="#000000" stroke-width="1" fill="none"></path></g><g transform="translate(292.9968519943137 182.90866359000728) rotate(0 235.55173598834534 0.10416227967783698)"><path d="M442.41 11.89 C448.58 9.06, 460.72 3.17, 470.87 -0.52 M441.88 11.25 C448.64 8.16, 454.9 7.24, 470.16 0.21" stroke="#000000" stroke-width="1" fill="none"></path></g><g transform="translate(292.9968519943137 182.90866359000728) rotate(0 235.55173598834534 0.10416227967783698)"><path d="M442.49 -8.63 C448.81 -5.41, 460.93 -5.25, 470.87 -0.52 M441.97 -9.27 C448.86 -8.07, 455.1 -4.71, 470.16 0.21" stroke="#000000" stroke-width="1" fill="none"></path></g></g><g stroke-linecap="round"><g transform="translate(761.0760238358753 224.19449567589913) rotate(0 -232.12903554904744 -0.5647444665152932)"><path d="M-0.23 -0.79 C-77.35 -1.07, -386.09 -0.44, -463.1 -0.65 M-1.81 1.41 C-79.05 1.28, -387.22 -2.1, -464.03 -2.54" stroke="#000000" stroke-width="1" fill="none"></path></g><g transform="translate(761.0760238358753 224.19449567589913) rotate(0 -232.12903554904744 -0.5647444665152932)"><path d="M-437.06 -12.48 C-442.45 -8.53, -452.34 -5.7, -464.46 -4.19 M-436.35 -12.07 C-443.31 -9.27, -450.43 -7.79, -464.95 -3.28" stroke="#000000" stroke-width="1" fill="none"></path></g><g transform="translate(761.0760238358753 224.19449567589913) rotate(0 -232.12903554904744 -0.5647444665152932)"><path d="M-437.24 8.04 C-442.76 6.52, -452.6 3.89, -464.46 -4.19 M-436.52 8.45 C-443.42 5.95, -450.5 2.13, -464.95 -3.28" stroke="#000000" stroke-width="1" fill="none"></path></g></g><g stroke-linecap="round"><g transform="translate(758.0760238358753 224.19449567589913) rotate(0 -231.21368952515536 -0.9371378013165668)"><path d="M-0.79 0.05 C-78.08 0.05, -385.49 -0.21, -462.71 -0.25 M1 -0.97 C-76.51 -1.28, -386.3 -1.75, -463.43 -1.92" stroke="#000000" stroke-width="1" fill="none"></path></g><g transform="translate(758.0760238358753 224.19449567589913) rotate(0 -231.21368952515536 -0.9371378013165668)"><path d="M-435.13 -11.39 C-444.75 -9.98, -455.5 -4.85, -465.07 -2.76 M-434.72 -12.38 C-442.75 -9.4, -452.05 -7.3, -464.17 -2.22" stroke="#000000" stroke-width="1" fill="none"></path></g><g transform="translate(758.0760238358753 224.19449567589913) rotate(0 -231.21368952515536 -0.9371378013165668)"><path d="M-435.17 9.13 C-444.73 2.59, -455.47 -0.22, -465.07 -2.76 M-434.76 8.14 C-442.84 5.16, -452.12 1.31, -464.17 -2.22" stroke="#000000" stroke-width="1" fill="none"></path></g></g><g stroke-linecap="round"><g transform="translate(758.0760238358753 217.19449567589913) rotate(0 -231.37931546795647 -0.810870694182853)"><path d="M0.05 0.44 C-76.96 0.23, -385.26 -1.76, -462.3 -2.06 M-1.38 -0.37 C-78.46 -0.4, -385.96 -1.07, -462.81 -1.04" stroke="#000000" stroke-width="1" fill="none"></path></g><g transform="translate(758.0760238358753 217.19449567589913) rotate(0 -231.37931546795647 -0.810870694182853)"><path d="M-433.87 -9.85 C-444.2 -6.81, -450.94 -7.16, -463.64 -1.23 M-434.85 -10.64 C-443.96 -8.26, -454.04 -5.18, -463.1 -1.14" stroke="#000000" stroke-width="1" fill="none"></path></g><g transform="translate(758.0760238358753 217.19449567589913) rotate(0 -231.37931546795647 -0.810870694182853)"><path d="M-433.89 10.67 C-444.09 7.96, -450.81 1.85, -463.64 -1.23 M-434.88 9.88 C-443.85 5.55, -453.92 1.92, -463.1 -1.14" stroke="#000000" stroke-width="1" fill="none"></path></g></g></svg>